<?xml version="1.0" encoding="UTF-8"?>
<svg width="192px" height="148px" viewBox="0 0 192 148" version="1.1" xmlns="http://www.w3.org/2000/svg" xmlns:xlink="http://www.w3.org/1999/xlink">
    <title>Group</title>
    <g id="Page-1" stroke="none" stroke-width="1" fill="none" fill-rule="evenodd">
        <g id="Scale" transform="translate(-1169.000000, -1037.000000)">
            <g id="Group" transform="translate(1172.000000, 1040.000000)">
                <path d="M26.1537651,84.7723053 C11.097057,87.44382 -28.0674349,105.330546 33.6602552,64.8301796 C69.5602587,41.2757051 107.886752,21.6100599 145,0" id="Path-7-Copy" stroke="#030303" stroke-width="5"></path>
                <path d="M144,0 C87.4624486,8.7003556 160.74033,-3.5099018 104.373551,8.94196987 C98.537096,10.2312893 90.9427365,7.24366711 86.6016883,11.3411541 C83.1113791,14.6356342 86.380041,20.9299587 86.6016883,25.7167145 C88.0728706,57.4887665 89.9868049,89.2389048 91.6793633,121" id="Path-8-Copy" stroke="#030303" stroke-width="5"></path>
                <path d="M104,72 C108.115475,129.609254 104.452251,115.486918 112.660468,88.6543401 C112.826741,88.1107943 113.988058,88.4762442 114.327416,88.9302184 C115.859361,90.9795709 116.147636,93.8940017 117.939138,95.7158577 C118.658263,96.4471673 119.979713,95.7158577 121,95.7158577" id="Path-9-Copy" stroke="#030303" stroke-width="5"></path>
                <path d="M126,86.2177529 C138.384652,112.482929 125.531157,92.503933 142.773159,66.142544 C146.820648,59.954316 139.653251,80.5796807 138.515812,87.8715235 C136.091085,103.415842 133.848612,118.994752 132.090371,134.627238 C131.703887,138.063462 132.090371,141.542413 132.090371,145" id="Path-10-Copy" stroke="#030303" stroke-width="5"></path>
                <path d="M150,47.1359647 C154.52464,26.0369399 151.137559,37.824078 158,83" id="Path-11-Copy" stroke="#030303" stroke-width="5"></path>
                <path d="M164,71 C164.823538,75.4987054 165.347011,80.0643151 166.470613,84.4961163 C166.561283,84.8537441 167.504524,85.2141017 167.510136,84.8449506 L173.998992,82.0448482 C174.058091,78.1572591 171.51414,72.7726824 167.701258,72.2727738 C164.798842,71.8922367 166.722336,78.1086774 166.232875,81.0266292" id="Path-12-Copy" stroke="#030303" stroke-width="5"></path>
                <path d="M183,103 C184.621367,102.335299 186.14013,101.410598 187.864102,101.005898 C188.217324,100.922979 187.803213,101.738479 187.515003,101.940109" id="Path-2" stroke="#979797"></path>
            </g>
        </g>
    </g>
</svg>