<?xml version="1.0" encoding="UTF-8"?>
<svg width="90px" height="74px" viewBox="0 0 90 74" version="1.1" xmlns="http://www.w3.org/2000/svg" xmlns:xlink="http://www.w3.org/1999/xlink">
    <title>Group Copy</title>
    <g id="Page-1" stroke="none" stroke-width="1" fill="none" fill-rule="evenodd">
        <g id="Mobile" transform="translate(-251.000000, -961.000000)" stroke="#030303" stroke-width="2">
            <g id="Group-Copy" transform="translate(253.000000, 962.000000)">
                <path d="M13.0768826,42.3861526 C5.54852851,43.72191 -14.0337174,52.665273 16.8301276,32.4150898 C34.7801294,20.6378526 53.9433759,10.8050299 72.5,0" id="Path-7-Copy"></path>
                <path d="M72,0 C43.7312243,4.3501778 80.370165,-1.7549509 52.1867753,4.47098494 C49.268548,5.11564464 45.4713683,3.62183356 43.3008442,5.67057707 C41.5556896,7.3178171 43.1900205,10.4649794 43.3008442,12.8583572 C44.0364353,28.7443832 44.9934025,44.6194524 45.8396816,60.5" id="Path-8-Copy"></path>
                <path d="M52,36 C54.0577375,64.8046272 52.2261256,57.7434591 56.3302339,44.32717 C56.4133705,44.0553972 56.9940292,44.2381221 57.1637081,44.4651092 C57.9296805,45.4897855 58.0738179,46.9470009 58.9695689,47.8579288 C59.3291315,48.2235837 59.9898563,47.8579288 60.5,47.8579288" id="Path-9-Copy"></path>
                <path d="M63,43.1088765 C69.1923261,56.2414647 62.7655786,46.2519665 71.3865793,33.071272 C73.4103239,29.977158 69.8266256,40.2898403 69.2579058,43.9357617 C68.0455426,51.7079209 66.924306,59.4973759 66.0451857,67.313619 C65.8519436,69.0317309 66.0451857,70.7712063 66.0451857,72.5" id="Path-10-Copy"></path>
                <path d="M75,23.5679824 C77.26232,13.0184699 75.5687795,18.912039 79,41.5" id="Path-11-Copy"></path>
                <path d="M82,35.5 C82.4117689,37.7493527 82.6735053,40.0321575 83.2353067,42.2480582 C83.2806417,42.426872 83.7522618,42.6070508 83.7550678,42.4224753 L86.9994959,41.0224241 C87.0290455,39.0786296 85.7570699,36.3863412 83.8506292,36.1363869 C82.3994211,35.9461184 83.3611681,39.0543387 83.1164375,40.5133146" id="Path-12-Copy"></path>
            </g>
        </g>
    </g>
</svg>