<?xml version="1.0" encoding="UTF-8"?>
<svg width="47px" height="41px" viewBox="0 0 47 41" version="1.1" xmlns="http://www.w3.org/2000/svg" xmlns:xlink="http://www.w3.org/1999/xlink">
    <title>Group 12</title>
    <g id="Page-1" stroke="none" stroke-width="1" fill="none" fill-rule="evenodd" stroke-linecap="round" stroke-linejoin="round">
        <g id="Mobile" transform="translate(-293.000000, -30.000000)" stroke="#000000" stroke-width="2.25">
            <g id="Group-12" transform="translate(295.000000, 32.000000)">
                <path d="M0.870836785,13.6619008 C-0.739479205,7.25753495 14.1581662,0.487660718 20.9453541,0.0320822813 C25.3383595,-0.262816735 30.7937061,1.50828445 33.7097875,3.98697256 C36.5836469,6.42981188 39.2523366,9.32652255 40.1661581,12.5791605 C40.1975594,12.6908893 40.5236666,14.2559452 40.4986304,14.2578444 C35.930796,14.6062392 31.1938611,14.1438111 26.5963227,14.3649427 C22.1757351,14.5775602 17.8446838,15.3067631 13.4181342,15.4579468 C10.8264626,15.5464379 6.99106445,16.0649864 4.55387474,15.4635802 C4.0155539,15.3307476 -0.283905138,13.4748683 1.20004167,13.4748683" id="Stroke-1"></path>
                <path d="M0.767544549,15.4791121 C0.534803802,15.8915487 2.68859247,17.3014967 3.02778251,17.4920575 C4.84979,18.5157208 7.03285222,18.75 9.12030168,18.75 L10.7886603,18.75 C14.9738635,18.75 18.7846845,17.4424638 22.8189426,16.6322887 C26.3613624,15.9208657 30.1590476,15.4230497 33.7634208,15.050929 C36.4648911,14.7720412 38.6141025,15.7294543 41.25,15.7294543" id="Stroke-2"></path>
                <path d="M1.46253398,18.0463385 C1.19213368,18.4300257 0.431541897,18.0858173 0.249413301,18.4674319 C-1.69618061,22.5442058 8.31622713,23.0469471 10.3544796,23.0469471 C15.4878696,23.0469471 20.4754883,23.7229086 25.5386675,22.608177 C28.8142431,21.8869972 31.8480078,20.0346048 35.1242254,19.5464115 C36.2181525,19.3833947 43.1001354,19.6720021 43.2687611,19.3581251 C44.5088448,17.0480702 40.4012682,18.3379352 39.4693331,18.54902" id="Stroke-3"></path>
                <path d="M1.99100284,28.0376688 C6.37837111,29.2686077 16.0134182,27.5393611 20.7010864,27.1779005 C24.5853164,26.8783939 28.6133988,26.811972 32.5211369,26.8506794 C34.7897774,26.8731518 36.869059,26.4577663 39.1006041,26.3768126 C39.6289975,26.3576358 40.1638609,26.3650234 40.6888035,26.3112754 C40.7168407,26.3084 41.2174124,26.2421109 41.2184908,26.2507813 C41.5128814,28.6539345 39.7128934,32.4473683 37.1382161,33.9304139 C34.8615958,35.2418199 31.4947599,35.6434477 28.7600549,36.0568867 C22.5470123,36.9961931 14.6219969,38.8465607 8.79949082,35.9056404 C8.5388096,35.7739689 8.29417428,35.626903 8.05234268,35.4771386 C7.76049704,35.2964305 7.47113161,35.118841 7.16313222,34.9533061 C5.48575306,34.0518002 3.45297008,33.0447448 2.35656474,31.7131888 C1.83218291,31.0763308 0.99607059,27.485414 1.90147792,27.485414" id="Stroke-4"></path>
                <path d="M0.0376173821,26.1220439 C-0.158195531,25.6426846 0.437801242,22.7536687 1.19082303,23.2519368 C1.59526461,23.5195648 2.04881909,25.8889147 2.57809727,25.7338227 C3.1689209,25.5606953 3.19836309,24.1008266 3.9318419,23.939621 C4.8017809,23.7484144 5.20060229,25.3989001 5.99630779,25.58253 C6.88455502,25.7875143 7.02369757,24.0599521 7.68528465,23.7195708 C8.244963,23.4316146 9.79613848,25.1837409 10.5598046,25.2593326 C11.8370166,25.3857338 13.4038818,22.8433439 13.9310737,23.2038131 C14.8821011,23.8540944 14.5909576,26.4244546 15.660286,26.8265844 C16.5336099,27.1550221 17.3843892,25.527441 18.1264047,25.2455768 C18.1989138,25.2180214 18.4822018,25.1759022 18.5549025,25.2318209 C19.0084995,25.5807396 19.0405176,26.3907855 19.506973,26.7715828 C20.8555445,27.8724015 21.8818699,24.6501006 22.9245875,24.4003552 C23.7086481,24.2125767 24.1007848,25.5827047 25.0896422,25.1699195 C26.5059754,24.5786793 27.0418105,22.2077573 28.6009905,21.9116132 C29.9134352,21.6623263 31.7312722,26.2333354 32.8970381,24.5372588 C33.496952,23.6644381 33.869929,22.606874 34.6122639,21.8359559 C35.7948478,20.607688 36.0603172,23.1821967 37.1788223,22.9568625 C37.839196,22.8238455 38.5217098,20.4113721 39.3841126,21.1351709 C40.4095864,21.9957641 40.916256,23.2675486 42.3262027,23.6232797 C42.7700708,23.7352699 42.9273939,23.4513969 42.4933185,23.1969352" id="Stroke-5"></path>
                <path d="M5.77276711,9.43067798 C5.57208875,11.5414737 9.44025165,10.1340228 7.87692178,8.58372087 C6.51481389,7.2328522 4.50668215,10.4194712 5.53040489,10.4194712" id="Stroke-6"></path>
                <path d="M15.9999161,3 C14.300158,3.628089 14.7634179,7.35937112 17.4206678,6.664003 C19.6964565,6.06842472 18.7655323,2.07299302 16.7643691,3.39148322 C16.3902095,3.63802283 15.9365355,3.90939701 15.9365355,4.29139794" id="Stroke-7"></path>
                <path d="M12.6663347,10.6674012 C11.3359498,9.90609782 11.8734709,15.3940538 15.4121334,12.7964595 C16.1067425,12.2865605 16.6843675,11.3778253 16.4449384,10.5762426 C15.6732144,7.99294629 10.0044344,12.2924493 13.1249704,12.2924493" id="Stroke-8"></path>
                <path d="M27.7045596,3.24814163 C28.4019337,0.251590146 24.8168355,4.86270569 26.9195885,5.85328365 C27.4236964,6.09082381 28.3105096,6.03480688 28.7555108,5.72234111 C30.4980956,4.49895015 27.075222,3.01816493 27.075222,4.96741245" id="Stroke-9"></path>
                <path d="M22.3826522,10.9906957 C22.7189677,10.3099381 21.5220683,13.0661271 22.8673301,13.4283605 C24.4327887,13.8498985 25.7470312,12.3194499 25.46051,11.2341524 C24.9082833,9.14184858 20.5192238,12.1635791 22.0861314,12.3892841" id="Stroke-10"></path>
                <path d="M32.0490375,9.94044034 C30.2701264,8.95483508 29.1276519,12.0890554 30.8544035,12.6298319 C31.1943549,12.7362527 31.863048,12.7888373 32.2242749,12.7168216 C34.5435394,12.2546476 30.9516306,9.98347412 30.6553741,11.7487373 C30.6418767,11.8288767 30.612823,11.9072597 30.5915475,11.9865867" id="Stroke-11"></path>
            </g>
        </g>
    </g>
</svg>