<?xml version="1.0" encoding="UTF-8"?>
<svg width="402px" height="726px" viewBox="0 0 402 726" version="1.1" xmlns="http://www.w3.org/2000/svg" xmlns:xlink="http://www.w3.org/1999/xlink">
    <title>Group 19</title>
    <g id="Page-1" stroke="none" stroke-width="1" fill="none" fill-rule="evenodd" stroke-linecap="round" stroke-linejoin="round">
        <g id="Mobile-Copy" transform="translate(-732.000000, -348.000000)" stroke="#000000" stroke-width="3">
            <g id="Group-19" transform="translate(733.000000, 349.000000)">
                <path d="M129.408,138.116 C132.677,134.272 150.365,105.995 136.393,107.766 C127.493,108.894 121.481,128.045 118.913,134.715 C108.778,161.044 101.075,196.696 109.514,224.689 C123.708,271.768 167.815,292.708 211.534,306.999 C229.224,312.782 259.387,322.576 277.808,313.378 C305.497,299.553 310.244,259.322 313.067,232.764 C317.383,192.147 321.523,140.702 302.189,102.58 C269.178,37.491 203.491,83.414 179.135,128.724 C169.006,147.569 162.089,168.285 158.689,189.4 C153.608,220.955 158.506,248.006 165.502,278.657" id="Stroke-1"></path>
                <path d="M233.176,81.368 C233.777,84.777 233.269,85.276 236.463,85.276 C247.433,85.276 251.865,47.535 252.062,40.219 C252.172,36.165 252.062,32.089 252.062,28.033 C252.062,26.709 252.314,22.778 251.993,24.062 C249.566,33.77 248.064,96.534 264.039,93.629 C273.102,91.982 264.515,37.198 267.662,35.482 C275.55,31.179 271.271,61.751 276.434,66.053 C276.627,66.214 277.554,66.479 277.757,66.262 C282.289,61.447 278.916,26.105 287.644,28.382 C290.992,29.255 295.209,89.437 293.217,98.994 C290.938,109.933 274.95,100.248 276.434,100.248" id="Stroke-2"></path>
                <path d="M228.312,154.33 C229.894,150.589 225.576,146.852 226.646,151.011 C228.996,160.152 239.29,136.97 226.785,140.567 C224.684,141.171 223.198,142.996 222.117,144.747 C214.812,156.589 226.288,172.759 234.721,157.699" id="Stroke-3"></path>
                <path d="M291.545,147.844 C292.08,147.688 303.707,143.638 305.403,146.413 C308.213,151.012 287.891,153.252 287.296,150.036 C285.797,141.943 304.885,154.692 291.406,159.65 C281.635,163.244 277.673,146.923 283.54,145.583 C290.688,143.95 287.955,168.786 284.794,172.393" id="Stroke-4"></path>
                <path d="M263.976,193.237 C259.165,182.705 272.479,199.389 269.543,207.905 C268.035,212.277 258.841,202.07 258.117,201.223 C257.105,200.039 255.144,195.817 255.546,197.322 C258.252,207.47 260.068,216.585 260.068,227.197" id="Stroke-5"></path>
                <path d="M139.136,86.232 C137.884,92.183 138.344,101.75 132.359,104.77 C129.743,106.09 139.981,97.546 141.967,95.441 C149.251,87.72 159.731,75.531 171.145,74.414 C182.814,73.271 192.748,78.965 203.522,82.559 C205.644,83.266 221.662,88.961 219.47,89.107" id="Stroke-6"></path>
                <path d="M160.214,159.194 C161.909,152.963 169.011,140.65 161.043,136.944 C130.468,122.725 125.238,198.669 159.169,195.789 C174.138,194.518 151.08,169.397 164.875,169.397" id="Stroke-7"></path>
                <path d="M134.272,149.466 C136.683,139.406 146.887,121.088 161.183,127.336 C170.418,131.373 154.588,141.654 164.527,143.145" id="Stroke-8"></path>
                <path d="M228.312,269.448 C231.17,267.895 240.666,262.731 240.643,262.709 C240.331,262.397 239.761,262.709 239.319,262.709 C225.426,262.709 224.341,263.216 214.251,253.658 C212.945,252.421 210.071,250.244 210.071,250.244 C210.071,250.244 228.509,257.363 238.205,257.693 C250.445,258.109 268.538,249.185 273.09,251.916" id="Stroke-9"></path>
                <path d="M186.149,297.005 C168.099,261.935 175.21,319.288 179.569,332.137 C179.867,333.015 179.963,333.752 180.893,334.018 C183.798,334.848 198.184,298.052 209.514,305.606 C217.938,311.222 227.095,355.314 242.524,338.337" id="Stroke-10"></path>
                <path d="M251.01103,305.118 C251.019,315.043 249.412,324.583 248.161,334.436 C248.059,335.239 248.229,343.686 246.489,342.163" id="Stroke-11"></path>
                <path d="M195.878,350.51 C221.724,347.155 178.078,325.52 153.023,331.827 C107.157,343.371 28.1494,447.888 64.1788,489.1 C86.7361,514.902 90.5793,428.575 93.636,418.906 C107.437,375.248 135.955,355.418 180.475,348.781 C214.732,343.674 280.262,343.197 299.139,380.537 C307.088,396.26 303.433,417.097 303.731,434.087 C303.771,436.392 309.526,460.691 309.862,460.2 C313.577,454.77 314.481,444.377 316.544,438.191 C324.281,414.989 336.163,401.098 324.695,377.82 C317.689,363.599 275.278,334.234 290.57,337.431 C344.628,348.735 341.275,437.688 337.717,478.586 C337.488,481.216 339.38,497.815 337.995,499.892 C334.431,505.238 329.904,506.475 329.565,514.098 C328.124,546.534 366.112,573.031 365.293,611.52 C365.074,621.789 338.112,608.299 344.816,604.49 C362.35,594.528 361.229,621.787 355.748,630.0458 C351.354,636.6675 346.286,642.9783 340.155,648.0773 C337.882,649.9678 329.744,652.8845 332.7,652.8845 C337.947,652.8845 347.394,647.2413 347.394,647.2413 C347.394,647.2413 344.923,648.2283 343.841,648.983 C337.336,653.5217 330.576,657.2387 323.232,660.263 C304.572,667.9473 285.551,675.0295 266.617,681.9932 C218.826,699.5701 169.112,715.8253 118.083,720.1526 C105.699,721.2029 73.112,726.7223 61.8164,717.6446 C60.4032,716.5089 65.0895,715.8542 66.8959,715.7002 C75.1814,714.9934 84.5286,720.3996 91.6852,718.9683 C96.8822,717.9289 97.4992,704.3661 97.8857,701.0064 C104.156,646.5112 71.4823,599.311 78.5242,545.019 C81.0146,525.817 89.1168,507.123 98.3734,490.284 C99.237,488.713 113.853,466.739 111.047,464.868 C106.964,462.146 69.7958,499.759 62.5828,494.806 C54.9066,489.536 95.9968,433.718 87.1631,421.414 C84.5657,417.796 78.5491,425.791 89.1138,429.837" id="Stroke-12"></path>
                <path d="M191.014,89.468 C189.741,83.321 191.91,71.227 189.177,65.566 C187.347,61.774 176.505,64.538 178.106,60.695 C183.975,46.609 253.514,25.213 258.883,36.527 C264.248,47.83 212.587,55.304 205.334,57.351 C199.969,58.865 194.659,60.582 189.456,62.576 C187.819,63.203 183.052,64.346 184.724,64.869 C192.953,67.441 217.031,52.195 222.744,57.909 C223.838,59.002 220.197,59.67 218.843,60.417 C213.04,63.616 206.622,67.203 202.199,72.254 C201.888,72.608 199.419,75.717 201.16,76.295 C207.491,78.394 216.666,76.561 222.675,74.483 C227.252,72.901 228.594,69.735 227.134,71.488 C224.829,74.253 237.849,74.065 238.274,74.065 C245.197,74.065 251.468,71.328 257.218,67.516 C259.002,66.333 263.33,63.318 261.322,62.576 C251.461,58.934 245.682,75.27 242.176,74.135 C232.627,71.046 224.683,62.739 213.415,65.635 C209.468,66.65 207.819,76.187 204.428,73.926 C202.456,72.611 201.756,64.102 197.537,71.697 C191.934,81.783 188.733,93.549 185.073,104.422 C183.472,109.178 182.404,112.19 180.893,116.823 C180.208,118.923 178.942,125.365 178.942,123.156 C178.942,107.906 182.843,92.668 182.843,77.194 C182.843,75.139 184.12,70.497 182.147,71.07 C175.516,72.994 170.937,100.052 169.195,105.885 C167.374,111.981 167.265,112.25 165.781,117.868 C165.249,119.883 165.186,125.969 164.527,123.992 C160.653,112.37 178.296,81.444 165.433,71.627 C160.199,67.633 153.9,87.2 153.108,90.083 C152.023,94.026 155.111,105.064 158.472,97.67 C159.533,95.336 147.165,97.26 152.481,104.01 C157.199,110.002 177.731,109.955 179.29,100.596 C179.552,99.025 176.902,102.721 175.877,103.94 C173.229,107.089 166.45,115.15 168.916,119.952 C171.917,125.796 182.265,118.039 184.515,115.708" id="Stroke-13"></path>
                <path d="M186.149,112.168 C177.336,114.599 169.297,126.64 161.67,126.64 C157.68,126.64 138.812,119.325 143.918,119.325" id="Stroke-14"></path>
                <path d="M134.265,206.208 C132.739,203.73 129.788,194.699 124.208,197.043 C121.055,198.367 118.847,203.193 117.317,205.954 C116.201,207.968 112.921,213.778 114.739,212.364 C122.716,206.16 121.978,189.006 121.978,179.981 C121.978,176.986 121.508,191.878 122.187,188.961 C124.69,178.225 124.765,166.347 124.765,155.4 C124.765,146.35 124.593,139.672 124.068,141.682 C120.186,156.565 123.192,203.95 115.575,214.105 C114.886,215.024 113.535,201.955 115.436,205.606 C120.036,214.437 119.907,241.347 132.422,243.417 C140.319,244.723 142.277,209.766 137.717,204.7 C136.489,203.336 137.508,208.368 137.508,210.204 C137.508,217.754 136.109,228.793 139.389,235.899 C139.418,235.962 139.565,235.96 139.598,235.899 C142.911,229.826 141.225,216.495 141.619,209.716 C141.855,205.644 140.734,193.976 142.733,197.531 C147.555,206.102 146.493,219.257 149.972,228.66 C153.465,238.097 168.181,242.827 163.343,253.31 C160.074,260.391 156.937,267.371 154.013,274.616 C153.421,276.084 152.833,277.553 152.202,279.005 C151.036,281.69 148.429,290.006 144.823,290.633 C142.463,291.044 141.634,270.402 140.992,267.446 C137.63,251.985 113.482,233.011 153.804,226.291 C154.085,226.244 146.884,224.406 142.942,222.738 C136.763,220.124 124.73,215.854 120.864,209.925 C116.518,203.261 142.86,202.827 146.077,203.167 C170.481,205.751 116.548,223.609 112.51,224.619 C112.023,224.741 111.485,224.724 111.047,224.967 C109.768,225.678 113.975,225.042 115.436,224.967 C120.279,224.721 143.985,217.951 147.186,222.32 C153.451,230.872 127.242,237.57 129.433,244.741 C131.962,253.016 152.547,246.96 155.546,255.609 C159.555,267.172 141.624,273.976 157.984,279.562" id="Stroke-15"></path>
                <path d="M100.216,391.045 C96.7321,394.061 94.5669,397.893 91.7549,401.495 C90.188,403.502 86.8172,409.676 86.6058,407.138 C86.0984,401.05 88.9967,395.703 92.3122,390.772 C92.995,389.757 99.7,383.306 95.7957,384.432 C80.4979,388.845 66.5566,417.84 59.2387,429.698 C39.4045,461.837 20.1092,497.584 21.7697,536.38 C22.3268,549.396 27.6202,561.769 28.3882,574.824 C28.4192,575.351 21.7861,566.509 17.2475,569.46 C12.5359,572.522 -2.6655,611.014 1.0908,615.282 C8.7596,623.997 36.0797,619.456 45.8686,619.456 C52.0865,619.456 69.0788,623.752 69.8916,623.641191 C95.6765,619.953 83.7679,585.151 83.401,572.595 C82.8379,553.32 83.029,533.858 83.4707,514.586 C84.0768,488.137 81.0661,417.882 116.481,466.743" id="Stroke-16"></path>
                <path d="M336.938,365.103 C333.023,362.192 325.743,354.106 319.888,355.184 C299.34,358.97 331.503,379.392 336.741,386.523 C341.43,392.904 399.469,481.915 399.342208,483.526 C397.729,503.951 381.63,515.721 358.326,531.439 C350.133,536.965 341.876,542.396 333.606,547.805 C331.493,549.187 325.682,549.82 327.197,551.84 C328.774,553.942 345.041,545.798 346.837,545.019 C350.597,543.386 364.41,539.09 365.641,534.435 C366.874,529.771 341.848,535.996 351.644,530.185 C354.765,528.334 357.852,526.434 360.904,524.473" id="Stroke-17"></path>
                <path d="M259.124,89.475 C275.983,71.203 269.403,33.88 269.403,11.459 C269.403,10.597 269.118,9.587 269.891,9.02 C284.446,-1.653 284.798,45.349 286.39,67.098 C286.438,67.756 286.494,73.008 287.574,73.369 C293.243,75.258 303.287,33.147 303.731,21.763 C303.937,16.487 305.948,5.448 302.338,0.806 C300.983,-0.936 302.331,5.23 302.616,7.418 C303.726,15.918 303.661,24.495 303.661,33.05 C303.661,53.371 298.454,77.923 301.78,97.879 C301.818,98.106 307.308,85.404 307.702,83.604 C310.046,72.887 311.321,62.077 312.091,51.151 C312.623,43.608 312.151,33.567 313.409,35.83 C315.993,40.481 312.902,90.261 309.792,91.748 C303.06,94.968 290.685,90.846 283.749,90.222 C281.141,89.987 278.562,89.76 275.946,89.665 C274.529,89.613 270.278,89.456 271.696,89.456 C280.402,89.456 291.835,95.49 300.457,97.67 C303.249,98.376 310.784,98.072 308.747,100.109 C305.453,103.403 285.133,99.551 280.265,99.551 C279.545,99.551 277.391,99.467 278.106,99.551 C282.951,100.121 288.206,106.001 292.103,108.741 C294.557,110.467 302.668,114.437 300.039,112.991 C287.968,106.352 275.936,106.153 263.133,103.592 C262.676,103.501 261.879,103.263 261.879,102.756" id="Stroke-18"></path>
            </g>
        </g>
    </g>
</svg>