<?xml version="1.0" encoding="UTF-8"?>
<svg width="184px" height="147px" viewBox="0 0 184 147" version="1.1" xmlns="http://www.w3.org/2000/svg" xmlns:xlink="http://www.w3.org/1999/xlink">
    <title>Group</title>
    <g id="Page-1" stroke="none" stroke-width="1" fill="none" fill-rule="evenodd">
        <g id="Scale" transform="translate(-1165.000000, -1038.000000)" stroke="#030303" stroke-width="3">
            <g id="Group" transform="translate(1167.000000, 1040.000000)">
                <path d="M27.0556191,84.7723053 C11.4797142,87.44382 -29.0352775,105.330546 34.8209536,64.8301796 C71.9588883,41.2757051 111.606985,21.6100599 150,0" id="Path-7-Copy"></path>
                <path d="M148.965517,0 C90.4783951,8.7003556 166.2831,-3.5099018 107.972638,8.94196987 C101.934927,10.2312893 94.078693,7.24366711 89.5879535,11.3411541 C85.9772888,14.6356342 89.3586631,20.9299587 89.5879535,25.7167145 C91.1098662,57.4887665 93.0897982,89.2389048 94.8407206,121" id="Path-8-Copy"></path>
                <path d="M107.586207,72 C111.843595,129.609254 108.054053,115.486918 116.545311,88.6543401 C116.717318,88.1107943 117.918681,88.4762442 118.269741,88.9302184 C119.854511,90.9795709 120.152727,93.8940017 122.006005,95.7158577 C122.749927,96.4471673 124.116944,95.7158577 125.172414,95.7158577" id="Path-9-Copy"></path>
                <path d="M130.344828,86.2177529 C143.156537,112.482929 129.859818,92.503933 147.696371,66.142544 C151.883429,59.954316 144.468881,80.5796807 143.292219,87.8715235 C140.783881,103.415842 138.464081,118.994752 136.645212,134.627238 C136.245401,138.063462 136.645212,141.542413 136.645212,145" id="Path-10-Copy"></path>
                <path d="M155.172414,47.1359647 C159.853076,26.0369399 156.349199,37.824078 163.448276,83" id="Path-11-Copy"></path>
                <path d="M169.655172,71 C170.507108,75.4987054 171.048632,80.0643151 172.210979,84.4961163 C172.304776,84.8537441 173.280542,85.2141017 173.286347,84.8449506 L179.998957,82.0448482 C180.060094,78.1572591 177.428421,72.7726824 173.48406,72.2727738 C170.481561,71.8922367 172.471382,78.1086774 171.965043,81.0266292" id="Path-12-Copy"></path>
            </g>
        </g>
    </g>
</svg>