<?xml version="1.0" encoding="UTF-8"?>
<svg width="314px" height="34px" viewBox="0 0 314 34" version="1.1" xmlns="http://www.w3.org/2000/svg" xmlns:xlink="http://www.w3.org/1999/xlink">
    <title>Path</title>
    <g id="Page-1" stroke="none" stroke-width="1" fill="none" fill-rule="evenodd">
        <g id="Mobile" transform="translate(-25.000000, -378.000000)" stroke="#979797" stroke-width="4">
            <path d="M27,404.694255 C28.3410831,402.605211 29.4232771,400.266631 31.0232493,398.427122 C35.3747274,393.424172 39.8267116,388.46988 44.7814429,384.250701 C62.8579358,368.857744 70.1910663,412.520467 91.1929688,409.054093 C102.696314,407.15546 110.719347,392.089365 121.794161,387.355401 C130.469258,383.647204 138.707975,400.130415 147.299866,402.423462 C171.197243,408.801312 183.142744,397.018118 205.147973,386.344022 C207.351984,385.27492 209.719005,384.504283 212.109042,384.297742 C219.818771,383.631486 221.838055,408.814727 239.231584,404.610864 C254.86185,400.833167 264.898925,383.027028 280.960312,380.089718 C282.380899,379.829921 284.153911,380.106251 285.145622,381.289261 C289.457055,386.432365 291.935439,393.332628 296.31273,398.403602 C306.686075,410.420843 325.364108,409.626743 338,404.39918" id="Path"></path>
        </g>
    </g>
</svg>